<svg width="24" height="24" viewBox="0 0 24 24" fill="none" xmlns="http://www.w3.org/2000/svg">
<path d="M15.3501 3.06371C14.8344 2.87063 14.2557 3.1307 14.0628 3.65083L8.0634 19.6647C7.87051 20.1809 8.13033 20.7602 8.64996 20.9532C8.76412 20.9966 9.55538 21.1739 9.93723 20.3661L15.9366 4.35223C16.1295 3.83603 15.8697 3.25679 15.3501 3.06371Z" fill="#6F7381"/>
<path d="M21.7077 11.2994L17.9916 7.57964C17.8341 7.42202 17.5821 7.42202 17.4247 7.57964L16.5783 8.42683C16.4208 8.58445 16.4208 8.83663 16.5783 8.99425L19.5898 12.0087L16.5783 15.0231C16.4208 15.1807 16.4208 15.4329 16.5783 15.5905L17.4247 16.4377C17.5821 16.5953 17.8341 16.5953 17.9916 16.4377L21.7077 12.718C22.0974 12.3239 22.0974 11.6934 21.7077 11.2994Z" fill="#6F7381"/>
<path d="M7.42565 8.43074L6.57927 7.58354C6.42181 7.42593 6.16987 7.42593 6.0124 7.58354L2.29229 11.2994C1.90257 11.6895 1.90257 12.3239 2.29229 12.714L6.00846 16.4337C6.16593 16.5914 6.41787 16.5914 6.57534 16.4337L7.42171 15.5865C7.57917 15.4289 7.57917 15.1767 7.42171 15.0191L4.4102 12.0047L7.42171 8.99028C7.57917 8.84054 7.57917 8.58441 7.42565 8.43074Z" fill="#6F7381"/>
</svg>
