<svg width="24" height="24" viewBox="0 0 24 24" fill="none" xmlns="http://www.w3.org/2000/svg">
<path fill-rule="evenodd" clip-rule="evenodd" d="M3.33241 7.12073C3.80526 6.8562 4.39455 7.04086 4.64863 7.53317C5.01158 8.23645 5.48381 8.88258 6.04513 9.45002C6.09057 9.4874 6.13339 9.52953 6.17292 9.57635C7.65055 11.005 9.70737 11.9024 12 11.9024C14.2897 11.9024 16.3433 11.008 17.8213 9.58325C17.8646 9.5311 17.9118 9.48465 17.9623 9.44398C18.5215 8.87783 18.9923 8.23354 19.3549 7.5324C19.6093 7.04032 20.1988 6.85619 20.6714 7.12114C21.1441 7.38608 21.3209 7.99977 21.0664 8.49186C20.7591 9.08607 20.3925 9.64485 19.9745 10.1613L22.6522 12.4969C23.0637 12.8558 23.1178 13.494 22.7731 13.9224C22.4283 14.3508 21.8153 14.4072 21.4039 14.0483L18.5718 11.5781C17.729 12.2753 16.7685 12.8396 15.7251 13.2401L17.0118 16.6144C17.2098 17.1339 16.966 17.7221 16.467 17.9283C15.9681 18.1345 15.4031 17.8806 15.205 17.3612L13.8339 13.7654C13.2384 13.8712 12.6254 13.9263 12 13.9263C11.3726 13.9263 10.7577 13.8708 10.1603 13.7643L8.78879 17.3612C8.59072 17.8806 8.02571 18.1345 7.52679 17.9283C7.02788 17.7221 6.78399 17.1339 6.98206 16.6144L8.26962 13.2377C7.22845 12.8373 6.26991 12.2737 5.42873 11.5776L2.59615 14.0483C2.18467 14.4072 1.57165 14.3508 1.22693 13.9224C0.882207 13.494 0.936319 12.8558 1.34779 12.4969L4.02656 10.1603C3.60896 9.64398 3.2429 9.08526 2.93626 8.49109C2.68219 7.99878 2.85955 7.38525 3.33241 7.12073Z" fill="#6F7381"/>
</svg>
