<svg width="24" height="24" viewBox="0 0 24 24" fill="none" xmlns="http://www.w3.org/2000/svg">
<path d="M12 8.0597C5.35709 8.0597 1.27305 14.0299 1.27305 14.0299C1.27305 14.0299 5.35709 20 12 20C18.6429 20 22.727 14.0299 22.727 14.0299C22.727 14.0299 18.6429 8.0597 12 8.0597ZM12 18.01C8.58199 18.01 5.90372 16.0569 4.35563 14.5635C4.16218 14.3769 3.98638 14.1974 3.82899 14.0299C4.63328 13.1737 5.91718 12.0127 7.57758 11.1659C8.01088 10.9449 8.46982 10.7453 8.95257 10.5781C8.40325 11.2745 8.10236 12.1409 8.09929 13.0348C8.09929 14.0904 8.51026 15.1028 9.24178 15.8492C9.97331 16.5956 10.9655 17.0149 12 17.0149C13.0345 17.0149 14.0267 16.5956 14.7582 15.8492C15.4897 15.1028 15.9007 14.0904 15.9007 13.0348C15.8976 12.1409 15.5968 11.2745 15.0474 10.5781C15.5318 10.7458 15.9921 10.9461 16.4267 11.1679C18.086 12.0148 19.3689 13.1751 20.171 14.0299C20.0139 14.1971 19.8386 14.3761 19.6457 14.5622C18.0967 16.0569 15.4185 18.01 12 18.01Z" fill="#6F7381"/>
<path fill-rule="evenodd" clip-rule="evenodd" d="M3.33241 14.6283C3.66875 14.8121 4.06401 14.7739 4.35563 14.5635C4.16218 14.3769 3.98638 14.1974 3.82899 14.0299C4.63328 13.1737 5.91718 12.0127 7.57758 11.1659C8.84853 10.4032 10.3642 9.95691 12 9.95691C13.6378 9.95691 15.1548 10.404 16.4267 11.1679C18.086 12.0148 19.3689 13.1751 20.171 14.0299C20.0139 14.1971 19.8386 14.3761 19.6457 14.5622C19.9377 14.774 20.3343 14.8126 20.6714 14.6279C21.1441 14.3691 21.3209 13.7696 21.0664 13.2888C20.7591 12.7083 20.3925 12.1624 19.9745 11.6579L22.6522 9.37619C23.0637 9.02556 23.1178 8.40204 22.7731 7.98353C22.4283 7.56501 21.8153 7.50997 21.4039 7.86059L18.5718 10.2738C17.729 9.59264 16.7685 9.0414 15.7251 8.65015L17.0118 5.35362C17.2098 4.84617 16.966 4.27148 16.467 4.07002C15.9681 3.86856 15.4031 4.11663 15.205 4.62408L13.8339 8.13693C13.2384 8.0336 12.6254 7.97973 12 7.97973C11.3726 7.97973 10.7577 8.03398 10.1603 8.13802L8.78879 4.62408C8.59072 4.11663 8.02571 3.86857 7.52679 4.07002C7.02788 4.27148 6.78399 4.84617 6.98206 5.35362L8.26962 8.65244C7.22845 9.04363 6.26991 9.5942 5.42873 10.2743L2.59615 7.86059C2.18467 7.50997 1.57165 7.56501 1.22693 7.98353C0.882207 8.40204 0.936319 9.02556 1.34779 9.37619L4.02656 11.6588C3.60896 12.1633 3.2429 12.7091 2.93626 13.2896C2.68219 13.7705 2.85955 14.3699 3.33241 14.6283Z" fill="#6F7381"/>
</svg>
