<svg width="24" height="24" viewBox="0 0 24 24" fill="none" xmlns="http://www.w3.org/2000/svg">
<path d="M17 3H8C6.89543 3 6 3.89543 6 5V11C6 12.1046 6.89543 13 8 13H17C18.1046 13 19 12.1046 19 11V5C19 3.89543 18.1046 3 17 3Z" fill="black" fill-opacity="0.25"/>
<path d="M2 9.21429H18.4444C19.6889 9.21429 20.3111 9.21429 20.7867 9.44786C21.2048 9.6533 21.5447 9.9811 21.7578 10.3843C22 10.8429 22 11.4429 22 12.6429V17.5714C22 18.7714 22 19.3714 21.7578 19.83C21.5447 20.2332 21.2048 20.561 20.7867 20.7664C20.3111 21 19.6889 21 18.4444 21H5.55556C4.31111 21 3.68889 21 3.21333 20.7664C2.79521 20.561 2.45527 20.2332 2.24222 19.83C2 19.3714 2 18.7714 2 17.5714V9.21429ZM2 9.21429C2 8.21571 2 7.71643 2.16889 7.32321C2.28057 7.06305 2.44433 6.82666 2.6508 6.62756C2.85728 6.42846 3.10242 6.27055 3.37222 6.16286C3.78 6 4.29778 6 5.33333 6H7.93667C8.84556 6 9.29889 6 9.70778 6.16286C10.1167 6.32571 10.4378 6.63643 11.08 7.25571L13.1111 9.21429H2Z" fill="black"/>
</svg>
