<svg width="24" height="24" viewBox="0 0 24 24" fill="none" xmlns="http://www.w3.org/2000/svg">
<path d="M21.8948 2.27138C21.8866 2.23186 21.8674 2.19549 21.8393 2.16652C21.8113 2.13756 21.7755 2.1172 21.7363 2.10784C19.1215 1.46797 13.0799 3.74819 9.80666 7.02308C9.22285 7.6027 8.69062 8.23214 8.21601 8.90427C7.20662 8.8149 6.19723 8.88953 5.33695 9.26487C2.90968 10.3342 2.20298 13.1242 2.0061 14.3244C1.99493 14.3901 1.99914 14.4575 2.0184 14.5213C2.03766 14.5851 2.07145 14.6435 2.1171 14.692C2.16275 14.7405 2.21902 14.7778 2.28148 14.8008C2.34395 14.8239 2.4109 14.8321 2.47709 14.8249L6.37491 14.3946C6.3777 14.6887 6.39543 14.9825 6.42804 15.2749C6.44765 15.4779 6.53769 15.6676 6.68251 15.8111L8.1919 17.3183C8.33539 17.463 8.52486 17.5531 8.72763 17.573C9.01806 17.6055 9.30996 17.6232 9.60219 17.6261L9.17451 21.5226C9.16737 21.5888 9.17566 21.6558 9.19873 21.7182C9.22179 21.7807 9.259 21.837 9.30744 21.8827C9.35588 21.9283 9.41423 21.9622 9.47792 21.9815C9.54161 22.0008 9.6089 22.0051 9.67452 21.994C10.8714 21.8018 13.6639 21.0945 14.7259 18.665C15.1009 17.804 15.1777 16.7986 15.0911 15.7932C15.7643 15.3181 16.3948 14.7853 16.9755 14.2007C20.2591 10.9307 22.5243 5.01855 21.8948 2.27138ZM13.6996 10.2998C13.3997 9.99985 13.1955 9.61768 13.1127 9.20158C13.0299 8.78549 13.0723 8.35416 13.2344 7.96216C13.3966 7.57017 13.6712 7.23511 14.0237 6.99937C14.3761 6.76363 14.7904 6.6378 15.2143 6.6378C15.6382 6.6378 16.0526 6.76363 16.405 6.99937C16.7574 7.23511 17.0321 7.57017 17.1942 7.96216C17.3564 8.35416 17.3987 8.78549 17.3159 9.20158C17.2331 9.61768 17.0289 9.99985 16.7291 10.2998C16.5303 10.499 16.2941 10.6571 16.0342 10.765C15.7743 10.8729 15.4957 10.9284 15.2143 10.9284C14.933 10.9284 14.6543 10.8729 14.3944 10.765C14.1345 10.6571 13.8984 10.499 13.6996 10.2998Z" fill="#6F7381"/>
<path d="M8.08922 18.4099C7.84458 18.6552 7.45216 18.7508 6.97983 18.8326C5.91866 19.0136 4.98159 18.0958 5.17222 17.022C5.24498 16.615 5.46017 16.0443 5.5941 15.9103C5.62337 15.8815 5.64286 15.8443 5.64978 15.8039C5.65671 15.7634 5.65073 15.7218 5.63269 15.685C5.61465 15.6481 5.58547 15.6179 5.54929 15.5986C5.51311 15.5793 5.47177 15.5718 5.43115 15.5774C4.83773 15.6501 4.28566 15.9193 3.86282 16.3424C2.81325 17.3938 2.71414 21.2951 2.71414 21.2951C2.71414 21.2951 6.6142 21.1959 7.66377 20.1445C8.08773 19.7217 8.35711 19.1682 8.42851 18.5734C8.44503 18.3867 8.2178 18.2754 8.08922 18.4099Z" fill="#6F7381"/>
</svg>
