<svg width="24" height="24" viewBox="0 0 24 24" fill="none" xmlns="http://www.w3.org/2000/svg">
<path fill-rule="evenodd" clip-rule="evenodd" d="M19.4142 6.41421C19.7893 6.78929 20 7.29799 20 7.82843V20C20 21.1045 19.1046 22 18 22H6C4.89543 22 4 21.1045 4 20V4C4 2.89543 4.89543 2 6 2H14.1716C14.702 2 15.2107 2.21071 15.5858 2.58579L19.4142 6.41421ZM6.11426 15.6458H9.03779L9.03784 14.5459H7.29266V10.8831H6.11426V15.6458ZM11.2635 15.7128C9.99076 15.7128 9.10183 14.721 9.10183 13.301C9.10183 11.8379 10.0157 10.816 11.3241 10.816C12.5969 10.816 13.4858 11.8053 13.4858 13.2217C13.4858 14.9425 12.3696 15.7128 11.2635 15.7128ZM10.3167 13.2888C10.3167 12.6499 10.5741 11.9037 11.2999 11.9037C11.9713 11.9037 12.277 12.5996 12.2771 13.2461C12.2771 13.9325 11.973 14.6252 11.2938 14.6252C10.6225 14.6252 10.3167 13.9324 10.3167 13.2888ZM16.3055 15.6884C16.849 15.6884 17.3808 15.5615 17.8854 15.3659V12.8333H15.889V13.9149H16.7192V14.5679C16.6407 14.5809 16.5165 14.5946 16.3419 14.5946C15.5592 14.5946 15.092 14.0973 15.092 13.2644C15.092 12.4353 15.5841 11.9402 16.4085 11.9402C16.8037 11.9402 17.1711 12.0596 17.5183 12.2403L17.8293 11.1828C17.3971 10.9479 16.9116 10.8404 16.4206 10.8404C14.9102 10.8404 13.8905 11.8243 13.8833 13.2887C13.8833 13.9977 14.1276 14.6416 14.5537 15.0553C14.9973 15.4813 15.5703 15.6884 16.3055 15.6884Z" fill="#6F7381"/>
</svg>
