<svg width="24" height="24" viewBox="0 0 24 24" fill="none" xmlns="http://www.w3.org/2000/svg">
<path d="M14 3C14 3.55228 14.4477 4 15 4H18.5858L14 8.58579C13.6095 8.97631 13.6095 9.60948 14 10C14.3905 10.3905 15.0237 10.3905 15.4142 10L20 5.41422V9C20 9.55228 20.4477 10 21 10C21.5523 10 22 9.55229 22 9V3C22 2.44772 21.5523 2 21 2H15C14.4477 2 14 2.44772 14 3Z" fill="#6F7381"/>
<path d="M9.99999 21C9.99999 20.4477 9.55227 20 8.99999 20H5.41421L9.99999 15.4142C10.3905 15.0237 10.3905 14.3905 9.99999 14C9.60946 13.6095 8.9763 13.6095 8.58577 14L4 18.5858V15C4 14.4477 3.55228 14 3 14C2.44772 14 2 14.4477 2 15V21C2 21.5523 2.44771 22 3 22H8.99999C9.55227 22 9.99999 21.5523 9.99999 21Z" fill="#6F7381"/>
</svg>
