<svg width="24" height="24" viewBox="0 0 24 24" fill="none" xmlns="http://www.w3.org/2000/svg">
<path d="M20.9999 9.99992C20.9999 9.44764 20.5522 8.99992 19.9999 8.99992H16.4141L20.9999 4.41414C21.3905 4.02361 21.3904 3.39045 20.9999 2.99992C20.6094 2.6094 19.9762 2.6094 19.5857 2.99993L14.9999 7.58571V3.99992C14.9999 3.44764 14.5522 2.99992 13.9999 2.99992C13.4477 2.99992 12.9999 3.44764 12.9999 3.99992V9.99992C12.9999 10.5522 13.4477 10.9999 13.9999 10.9999H19.9999C20.5522 10.9999 20.9999 10.5522 20.9999 9.99992Z" fill="#6F7381"/>
<path d="M2.99993 13.9999C2.99993 14.5522 3.44764 14.9999 3.99993 14.9999H7.5857L2.99992 19.5857C2.6094 19.9762 2.6094 20.6094 2.99993 20.9999C3.39045 21.3904 4.02361 21.3904 4.41414 20.9999L8.99991 16.4141V19.9999C8.99991 20.5522 9.44763 20.9999 9.99991 20.9999C10.5522 20.9999 10.9999 20.5522 10.9999 19.9999V13.9999C10.9999 13.4476 10.5522 12.9999 9.99991 12.9999H3.99993C3.44764 12.9999 2.99993 13.4476 2.99993 13.9999Z" fill="#6F7381"/>
</svg>
