<svg width="24" height="24" viewBox="0 0 24 24" fill="none" xmlns="http://www.w3.org/2000/svg">
<path fill-rule="evenodd" clip-rule="evenodd" d="M7.56825 2.0734C7.95295 2.22258 8.20378 2.57404 8.20378 2.96388V9.02813H8.78286C9.35143 9.02813 9.81235 9.45966 9.81235 9.99198C9.81235 10.5243 9.35143 10.9558 8.78286 10.9558H5.56571C4.99714 10.9558 4.53622 10.5243 4.53622 9.99198C4.53622 9.45966 4.99714 9.02813 5.56571 9.02813H6.1448V5.29083L5.75748 5.65346C5.35544 6.02987 4.7036 6.02987 4.30156 5.65346C3.89952 5.27705 3.89952 4.66677 4.30156 4.29036L6.44633 2.28233C6.74076 2.00667 7.18356 1.92421 7.56825 2.0734ZM15.611 7.24632C16.191 7.02139 16.8293 6.96253 17.445 7.0772C18.0608 7.19188 18.6264 7.47492 19.0703 7.89055C19.5142 8.30617 19.8165 8.83571 19.939 9.4122C20.0615 9.98869 19.9986 10.5862 19.7584 11.1293C19.6159 11.4514 19.4148 11.7457 19.1658 12C19.4148 12.2543 19.6159 12.5487 19.7584 12.8708C19.9986 13.4138 20.0615 14.0113 19.939 14.5878C19.8165 15.1643 19.5142 15.6939 19.0703 16.1095C18.6264 16.5251 18.0608 16.8082 17.445 16.9228C16.8293 17.0375 16.191 16.9786 15.611 16.7537C15.031 16.5288 14.5352 16.1479 14.1864 15.6591C13.8377 15.1704 13.6515 14.5958 13.6515 14.008C13.6515 13.4757 14.1124 13.0442 14.681 13.0442C15.2495 13.0442 15.7105 13.4757 15.7105 14.008C15.7105 14.2146 15.7759 14.4164 15.8984 14.5882C16.021 14.7599 16.1952 14.8937 16.3989 14.9727C16.6027 15.0518 16.827 15.0724 17.0433 15.0322C17.2597 14.9919 17.4584 14.8924 17.6144 14.7464C17.7703 14.6004 17.8766 14.4143 17.9196 14.2118C17.9626 14.0092 17.9405 13.7993 17.8561 13.6085C17.7717 13.4177 17.6288 13.2546 17.4454 13.1398C17.262 13.0251 17.0463 12.9639 16.8257 12.9639C16.2572 12.9639 15.7963 12.5323 15.7963 12C15.7963 11.4677 16.2572 11.0362 16.8257 11.0362C17.0463 11.0362 17.262 10.9749 17.4454 10.8602C17.6288 10.7455 17.7717 10.5824 17.8561 10.3916C17.9405 10.2008 17.9626 9.99083 17.9196 9.78828C17.8766 9.58573 17.7703 9.39967 17.6144 9.25364C17.4584 9.10761 17.2597 9.00816 17.0433 8.96787C16.827 8.92758 16.6027 8.94826 16.3989 9.02729C16.1952 9.10632 16.021 9.24016 15.8984 9.41187C15.7759 9.58359 15.7105 9.78547 15.7105 9.99198C15.7105 10.5243 15.2495 10.9558 14.681 10.9558C14.1124 10.9558 13.6515 10.5243 13.6515 9.99198C13.6515 9.4042 13.8377 8.82962 14.1864 8.34089C14.5352 7.85217 15.031 7.47126 15.611 7.24632ZM7.17429 14.9719C6.8785 14.9719 6.59482 15.0819 6.38567 15.2777C6.17651 15.4736 6.05901 15.7391 6.05901 16.0161C6.05901 16.5484 5.59809 16.9799 5.02952 16.9799C4.46095 16.9799 4.00003 16.5484 4.00003 16.0161C4.00003 15.2279 4.33446 14.472 4.92975 13.9146C5.52504 13.3573 6.33242 13.0442 7.17429 13.0442C8.01615 13.0442 8.82354 13.3573 9.41882 13.9146C10.0141 14.472 10.3485 15.2279 10.3485 16.0161C10.3485 16.5781 10.0672 17.1316 9.84231 17.509C9.59465 17.9245 9.29463 18.3182 9.07466 18.5969C9.04425 18.6354 9.01081 18.6718 8.97463 18.7056L7.51492 20.0723H9.31905C9.88763 20.0723 10.3485 20.5038 10.3485 21.0361C10.3485 21.5685 9.88763 22 9.31905 22H5.02952C4.61313 22 4.23774 21.7652 4.0784 21.405C3.91905 21.0448 4.00713 20.6303 4.30156 20.3546L7.46365 17.3941C7.66005 17.1431 7.87573 16.8525 8.04433 16.5696C8.13462 16.4181 8.20129 16.2855 8.24356 16.1761C8.28339 16.073 8.28877 16.023 8.28947 16.0165C8.28955 16.0157 8.28957 16.0156 8.28957 16.0161C8.28957 15.7391 8.17206 15.4736 7.96291 15.2777C7.75375 15.0819 7.47008 14.9719 7.17429 14.9719Z" fill="#6F7381"/>
</svg>
