<svg width="24" height="24" viewBox="0 0 24 24" fill="none" xmlns="http://www.w3.org/2000/svg">
<g clip-path="url(#clip0_22106_33054)">
<path d="M11.9856 2.00016C11.1744 2.00393 10.3996 2.07312 9.71794 2.19375C7.70976 2.54853 7.34516 3.29111 7.34516 4.66056V6.46919H12.0907V7.07207H7.34516H5.56418C4.18499 7.07207 2.97732 7.90104 2.59958 9.47804C2.16386 11.2856 2.14453 12.4136 2.59958 14.301C2.93691 15.706 3.74251 16.707 5.1217 16.707H6.75334V14.5389C6.75334 12.9725 8.10859 11.5909 9.71794 11.5909H14.458C15.7774 11.5909 16.8308 10.5045 16.8308 9.17937V4.66056C16.8308 3.37448 15.7458 2.40839 14.458 2.19375C13.6428 2.05804 12.7969 1.99639 11.9856 2.00016ZM9.41927 3.45481C9.90946 3.45481 10.3098 3.86165 10.3098 4.36189C10.3098 4.86035 9.90946 5.26344 9.41927 5.26344C8.92733 5.26344 8.52878 4.86035 8.52878 4.36189C8.52878 3.86165 8.92733 3.45481 9.41927 3.45481Z" fill="url(#paint0_linear_22106_33054)"/>
<path d="M17.4225 7.07202V9.17932C17.4225 10.8131 16.0374 12.1882 14.4579 12.1882H9.71788C8.4195 12.1882 7.34509 13.2994 7.34509 14.5997V19.1185C7.34509 20.4046 8.46343 21.161 9.71788 21.53C11.2201 21.9717 12.6606 22.0515 14.4579 21.53C15.6526 21.1841 16.8307 20.4879 16.8307 19.1185V17.3099H12.0907V16.707H16.8307H19.2035C20.5827 16.707 21.0966 15.745 21.5763 14.301C22.0717 12.8145 22.0507 11.3849 21.5763 9.47799C21.2354 8.105 20.5845 7.07202 19.2035 7.07202H17.4225ZM14.7566 18.5156C15.2485 18.5156 15.6471 18.9187 15.6471 19.4172C15.6471 19.9174 15.2485 20.3242 14.7566 20.3242C14.2664 20.3242 13.8661 19.9174 13.8661 19.4172C13.8661 18.9187 14.2664 18.5156 14.7566 18.5156Z" fill="url(#paint1_linear_22106_33054)"/>
</g>
<defs>
<linearGradient id="paint0_linear_22106_33054" x1="2.2655" y1="2" x2="13.2083" y2="11.3248" gradientUnits="userSpaceOnUse">
<stop stop-color="#5A9FD4"/>
<stop offset="1" stop-color="#306998"/>
</linearGradient>
<linearGradient id="paint1_linear_22106_33054" x1="14.6426" y1="19.2651" x2="10.7167" y2="13.7638" gradientUnits="userSpaceOnUse">
<stop stop-color="#FFD43B"/>
<stop offset="1" stop-color="#FFE873"/>
</linearGradient>
<clipPath id="clip0_22106_33054">
<rect width="20" height="20" fill="white" transform="translate(2 2)"/>
</clipPath>
</defs>
</svg>
