<svg width="24" height="24" viewBox="0 0 24 24" fill="none" xmlns="http://www.w3.org/2000/svg">
<path d="M3 4.12491C3 3.82656 3.11852 3.54044 3.32948 3.32948C3.54044 3.11852 3.82656 3 4.12491 3H7.87459C8.17294 3 8.45906 3.11852 8.67002 3.32948C8.88098 3.54044 8.9995 3.82656 8.9995 4.12491C8.9995 4.42325 8.88098 4.70937 8.67002 4.92034C8.45906 5.1313 8.17294 5.24981 7.87459 5.24981H6.83968L9.41947 7.8296C9.52999 7.93258 9.61863 8.05677 9.68012 8.19476C9.7416 8.33275 9.77466 8.48171 9.77732 8.63275C9.77999 8.78379 9.7522 8.93382 9.69563 9.07389C9.63905 9.21396 9.55484 9.3412 9.44802 9.44802C9.3412 9.55484 9.21396 9.63905 9.07389 9.69563C8.93382 9.7522 8.78379 9.77999 8.63275 9.77732C8.48171 9.77466 8.33275 9.7416 8.19476 9.68012C8.05677 9.61863 7.93258 9.52999 7.8296 9.41947L5.24981 6.83968V7.87609C5.24981 8.17444 5.1313 8.46056 4.92034 8.67152C4.70937 8.88248 4.42325 9.001 4.12491 9.001C3.82656 9.001 3.54044 8.88248 3.32948 8.67152C3.11852 8.46056 3 8.17444 3 7.87609V4.12491ZM19.8736 21C20.1719 21 20.4581 20.8815 20.669 20.6705C20.88 20.4596 20.9985 20.1734 20.9985 19.8751V16.1239C20.9985 15.8256 20.88 15.5394 20.669 15.3285C20.4581 15.1175 20.1719 14.999 19.8736 14.999C19.5753 14.999 19.2891 15.1175 19.0782 15.3285C18.8672 15.5394 18.7487 15.8256 18.7487 16.1239V17.1588L16.1689 14.579C15.9557 14.3803 15.6736 14.2722 15.3822 14.2773C15.0908 14.2824 14.8127 14.4005 14.6066 14.6066C14.4005 14.8127 14.2824 15.0908 14.2773 15.3822C14.2722 15.6736 14.3803 15.9557 14.579 16.1689L17.1588 18.7502H16.1239C15.8256 18.7502 15.5394 18.8687 15.3285 19.0797C15.1175 19.2906 14.999 19.5767 14.999 19.8751C14.999 20.1734 15.1175 20.4596 15.3285 20.6705C15.5394 20.8815 15.8256 21 16.1239 21H19.8736ZM20.6685 3.33147C20.8815 3.54146 20.9985 3.82643 20.9985 4.12641V7.87609C20.9985 8.17444 20.88 8.46056 20.669 8.67152C20.4581 8.88248 20.1719 9.001 19.8736 9.001C19.5753 9.001 19.2891 8.88248 19.0782 8.67152C18.8672 8.46056 18.7487 8.17444 18.7487 7.87609V6.84118L16.1689 9.42097C16.0651 9.52836 15.9409 9.61399 15.8036 9.67288C15.6664 9.73177 15.5188 9.76273 15.3694 9.76396C15.22 9.76519 15.0719 9.73666 14.9337 9.68003C14.7955 9.6234 14.6699 9.53982 14.5643 9.43415C14.4588 9.32848 14.3753 9.20284 14.3188 9.06457C14.2623 8.92629 14.2339 8.77815 14.2353 8.62879C14.2367 8.47943 14.2678 8.33183 14.3268 8.19462C14.3858 8.0574 14.4715 7.93332 14.579 7.8296L17.1588 5.24981H16.1239C15.8256 5.24981 15.5394 5.1313 15.3285 4.92034C15.1175 4.70937 14.999 4.42325 14.999 4.12491C14.999 3.82656 15.1175 3.54044 15.3285 3.32948C15.5394 3.11852 15.8256 3 16.1239 3H19.8736C20.1718 3.00026 20.4578 3.11895 20.6685 3.32997V3.33147ZM3 19.8736C3 20.1719 3.11852 20.4581 3.32948 20.669C3.54044 20.88 3.82656 20.9985 4.12491 20.9985H7.87609C8.17444 20.9985 8.46056 20.88 8.67152 20.669C8.88248 20.4581 9.001 20.1719 9.001 19.8736C9.001 19.5753 8.88248 19.2891 8.67152 19.0782C8.46056 18.8672 8.17444 18.7487 7.87609 18.7487H6.84118L9.42097 16.1689C9.62578 15.9566 9.73903 15.6724 9.73633 15.3775C9.73363 15.0825 9.61519 14.8005 9.40652 14.592C9.19786 14.3835 8.91566 14.2653 8.62071 14.2629C8.32576 14.2605 8.04166 14.374 7.8296 14.579L5.24981 17.1588V16.1239C5.24981 15.8256 5.1313 15.5394 4.92034 15.3285C4.70937 15.1175 4.42325 14.999 4.12491 14.999C3.82656 14.999 3.54044 15.1175 3.32948 15.3285C3.11852 15.5394 3 15.8256 3 16.1239V19.8736Z" fill="#6F7381"/>
</svg>
