<svg width="24" height="24" viewBox="0 0 24 24" fill="none" xmlns="http://www.w3.org/2000/svg">
<path d="M12 20C12 19.4477 12.4478 19 13 19H19V5H13C12.4478 5 12 4.55228 12 4C12 3.44772 12.4478 3 13 3H19C20.1046 3 21 3.89543 21 5V19C21 20.1046 20.1046 21 19 21H13C12.4478 21 12 20.5523 12 20Z" fill="#6F7381"/>
<path d="M9.00002 8.4142L11.5858 11H3C2.44771 11 2 11.4477 2 12C2 12.5523 2.44772 13 3 13H11.5858L8.99998 15.5858C8.60945 15.9763 8.60945 16.6095 8.99998 17C9.3905 17.3905 10.0237 17.3905 10.4142 17L14.7071 12.7071C14.8946 12.5195 15 12.2652 15 12C15 11.7347 14.8946 11.4804 14.7071 11.2929L10.4142 6.99998C10.0237 6.60946 9.39054 6.60946 9.00002 6.99998C8.60949 7.39051 8.60949 8.02367 9.00002 8.4142Z" fill="#6F7381"/>
</svg>
