<svg width="24" height="24" viewBox="0 0 24 24" fill="none" xmlns="http://www.w3.org/2000/svg">
<path d="M11.9951 19C15.8611 19 18.9951 15.866 18.9951 12C18.9951 8.13401 15.8611 5 11.9951 5C9.2027 5 6.7921 6.6351 5.6687 9.0001H8.1951C8.7474 9.0001 9.1951 9.44781 9.1951 10.0001C9.1951 10.5524 8.7474 11.0001 8.1951 11.0001H3.1951C2.9299 11.0001 2.6755 10.8947 2.488 10.7072C2.3005 10.5197 2.1951 10.2653 2.1951 10.0001V5.0001C2.1951 4.44781 2.6428 4.0001 3.1951 4.0001C3.7474 4.0001 4.1951 4.44781 4.1951 5.0001V7.50699C5.7503 4.81303 8.661 3 11.9951 3C16.9657 3 20.9951 7.02944 20.9951 12C20.9951 16.9706 16.9657 21 11.9951 21C8.1509 21 4.8696 18.5898 3.5799 15.1981C3.3519 14.5984 3.8289 14 4.4705 14H4.5393C4.9817 14 5.3648 14.294 5.5357 14.7021C6.593 17.2265 9.0869 19 11.9951 19Z" fill="#6F7381"/>
</svg>
