<svg width="24" height="24" viewBox="0 0 24 24" fill="none" xmlns="http://www.w3.org/2000/svg">
<path d="M16.0029 8.41389L18.5887 10.9997H3.00293C2.96841 10.9997 2.9343 11.0014 2.90069 11.0048C2.39643 11.056 2.00293 11.4819 2.00293 11.9997C2.00293 12.5519 2.45064 12.9997 3.00293 12.9997H18.5887L16.0029 15.5854C15.6124 15.976 15.6124 16.6091 16.0029 16.9997C16.3935 17.3902 17.0266 17.3902 17.4172 16.9997L21.71 12.7068C22.1006 12.3162 22.1006 11.6831 21.71 11.2926L17.4172 6.99968C17.0266 6.60916 16.3935 6.60916 16.0029 6.99968C15.9541 7.0485 15.9114 7.1011 15.8748 7.15655C15.6185 7.5447 15.6612 8.07219 16.0029 8.41389Z" fill="#6F7381"/>
</svg>
